<svg id="my-svg" width="100%" xmlns="http://www.w3.org/2000/svg" xmlns:xlink="http://www.w3.org/1999/xlink" class="statediagram" style="max-width: 1613.92px; background-color: transparent;" viewBox="0 -49 1613.916015625 1632" role="graphics-document document" aria-roledescription="stateDiagram"><style>#my-svg{font-family:Inter,Helvetica,Arial,sans-serif;font-size:15px;fill:#0f172a;}@keyframes edge-animation-frame{from{stroke-dashoffset:0;}}@keyframes dash{to{stroke-dashoffset:0;}}#my-svg .edge-animation-slow{stroke-dasharray:9,5!important;stroke-dashoffset:900;animation:dash 50s linear infinite;stroke-linecap:round;}#my-svg .edge-animation-fast{stroke-dasharray:9,5!important;stroke-dashoffset:900;animation:dash 20s linear infinite;stroke-linecap:round;}#my-svg .error-icon{fill:#f1f5f9;}#my-svg .error-text{fill:#0e0a06;stroke:#0e0a06;}#my-svg .edge-thickness-normal{stroke-width:1px;}#my-svg .edge-thickness-thick{stroke-width:3.5px;}#my-svg .edge-pattern-solid{stroke-dasharray:0;}#my-svg .edge-thickness-invisible{stroke-width:0;fill:none;}#my-svg .edge-pattern-dashed{stroke-dasharray:3;}#my-svg .edge-pattern-dotted{stroke-dasharray:2;}#my-svg .marker{fill:#475569;stroke:#475569;}#my-svg .marker.cross{stroke:#475569;}#my-svg svg{font-family:Inter,Helvetica,Arial,sans-serif;font-size:15px;}#my-svg p{margin:0;}#my-svg defs [id$="-barbEnd"]{fill:#475569;stroke:#475569;}#my-svg g.stateGroup text{fill:#1d4ed8;stroke:none;font-size:10px;}#my-svg g.stateGroup text{fill:#0f172a;stroke:none;font-size:10px;}#my-svg g.stateGroup .state-title{font-weight:bolder;fill:#0f172a;}#my-svg g.stateGroup rect{fill:#dbeafe;stroke:#1d4ed8;}#my-svg g.stateGroup line{stroke:#475569;stroke-width:1;}#my-svg .transition{stroke:#475569;stroke-width:1;fill:none;}#my-svg .stateGroup .composit{fill:#f4f4f4;border-bottom:1px;}#my-svg .stateGroup .alt-composit{fill:#e0e0e0;border-bottom:1px;}#my-svg .state-note{stroke:hsl(52.6829268293, 60%, 73.9215686275%);fill:#fff5ad;}#my-svg .state-note text{fill:#333;stroke:none;font-size:10px;}#my-svg .stateLabel .box{stroke:none;stroke-width:0;fill:#dbeafe;opacity:0.5;}#my-svg .edgeLabel .label rect{fill:#dbeafe;opacity:0.5;}#my-svg .edgeLabel{background-color:#ffffff;text-align:center;}#my-svg .edgeLabel p{background-color:#ffffff;}#my-svg .edgeLabel rect{opacity:0.5;background-color:#ffffff;fill:#ffffff;}#my-svg .edgeLabel .label text{fill:#0f172a;}#my-svg .label div .edgeLabel{color:#0f172a;}#my-svg .stateLabel text{fill:#0f172a;font-size:10px;font-weight:bold;}#my-svg .node circle.state-start{fill:#475569;stroke:#475569;}#my-svg .node .fork-join{fill:#475569;stroke:#475569;}#my-svg .node circle.state-end{fill:#1d4ed8;stroke:#f4f4f4;stroke-width:1.5;}#my-svg .end-state-inner{fill:#f4f4f4;stroke-width:1.5;}#my-svg .node rect{fill:#dbeafe;stroke:#1d4ed8;stroke-width:1px;}#my-svg .node polygon{fill:#dbeafe;stroke:#1d4ed8;stroke-width:1px;}#my-svg [id$="-barbEnd"]{fill:#475569;}#my-svg .statediagram-cluster rect{fill:#dbeafe;stroke:#1d4ed8;stroke-width:1px;}#my-svg .cluster-label,#my-svg .nodeLabel{color:#0f172a;}#my-svg .statediagram-cluster rect.outer{rx:5px;ry:5px;}#my-svg .statediagram-state .divider{stroke:#1d4ed8;}#my-svg .statediagram-state .title-state{rx:5px;ry:5px;}#my-svg .statediagram-cluster.statediagram-cluster .inner{fill:#f4f4f4;}#my-svg .statediagram-cluster.statediagram-cluster-alt .inner{fill:#f1f5f9;}#my-svg .statediagram-cluster .inner{rx:0;ry:0;}#my-svg .statediagram-state rect.basic{rx:5px;ry:5px;}#my-svg .statediagram-state rect.divider{stroke-dasharray:10,10;fill:#f1f5f9;}#my-svg .note-edge{stroke-dasharray:5;}#my-svg .statediagram-note rect{fill:#fff5ad;stroke:hsl(52.6829268293, 60%, 73.9215686275%);stroke-width:1px;rx:0;ry:0;}#my-svg .statediagram-note rect{fill:#fff5ad;stroke:hsl(52.6829268293, 60%, 73.9215686275%);stroke-width:1px;rx:0;ry:0;}#my-svg .statediagram-note text{fill:#333;}#my-svg .statediagram-note .nodeLabel{color:#333;}#my-svg .statediagram .edgeLabel{color:red;}#my-svg [id$="-dependencyStart"],#my-svg [id$="-dependencyEnd"]{fill:#475569;stroke:#475569;stroke-width:1;}#my-svg .statediagramTitleText{text-anchor:middle;font-size:18px;fill:#0f172a;}#my-svg [data-look="neo"].statediagram-cluster rect{fill:#dbeafe;stroke:url(#my-svg-gradient);stroke-width:1;}#my-svg [data-look="neo"].statediagram-cluster rect.outer{rx:5px;ry:5px;filter:drop-shadow( 1px 2px 2px rgba(185,185,185,1));}#my-svg .node .neo-node{stroke:#1d4ed8;}#my-svg [data-look="neo"].node rect,#my-svg [data-look="neo"].cluster rect,#my-svg [data-look="neo"].node polygon{stroke:url(#my-svg-gradient);filter:drop-shadow( 1px 2px 2px rgba(185,185,185,1));}#my-svg [data-look="neo"].node path{stroke:url(#my-svg-gradient);stroke-width:1px;}#my-svg [data-look="neo"].node .outer-path{filter:drop-shadow( 1px 2px 2px rgba(185,185,185,1));}#my-svg [data-look="neo"].node .neo-line path{stroke:#1d4ed8;filter:none;}#my-svg [data-look="neo"].node circle{stroke:url(#my-svg-gradient);filter:drop-shadow( 1px 2px 2px rgba(185,185,185,1));}#my-svg [data-look="neo"].node circle .state-start{fill:#000000;}#my-svg [data-look="neo"].icon-shape .icon{fill:url(#my-svg-gradient);filter:drop-shadow( 1px 2px 2px rgba(185,185,185,1));}#my-svg [data-look="neo"].icon-shape .icon-neo path{stroke:url(#my-svg-gradient);filter:drop-shadow( 1px 2px 2px rgba(185,185,185,1));}#my-svg :root{--mermaid-font-family:"trebuchet ms",verdana,arial,sans-serif;}</style><g><defs><marker id="my-svg_stateDiagram-barbEnd" refX="19" refY="7" markerWidth="20" markerHeight="14" markerUnits="userSpaceOnUse" orient="auto"><path d="M 19,7 L9,13 L14,7 L9,1 Z"/></marker></defs><g class="root"><g class="clusters"><g class="note-cluster" id="my-svg-state-GATED----parent-18"><rect x="8" y="490" width="412.953125" height="219" fill="none"/></g><g class="note-cluster" id="my-svg-state-NEEDS_HUMAN----parent-19"><rect x="1163.897656250745" y="1401" width="351.640625" height="174" fill="none"/></g><g class="note-cluster" id="my-svg-state-MONITORED----parent-20"><rect x="568.7578125" y="490" width="319.140625" height="219" fill="none"/></g></g><g class="edgePaths"><path d="M1276.205,22L1276.205,27C1276.205,32,1276.205,42,1276.205,52C1276.205,62,1276.205,72,1276.205,77L1276.205,82" id="my-svg-edge0" class="edge-thickness-normal edge-pattern-solid transition" style="fill:none;;;fill:none" data-edge="true" data-et="edge" data-id="edge0" data-points="W3sieCI6MTI3Ni4yMDQ2ODc1MDAzNzI1LCJ5IjoyMn0seyJ4IjoxMjc2LjIwNDY4NzUwMDM3MjUsInkiOjUyfSx7IngiOjEyNzYuMjA0Njg3NTAwMzcyNSwieSI6ODJ9XQ==" data-look="classic" marker-end="url(#my-svg_stateDiagram-barbEnd)"/><path d="M1241.666,117.87L1226.468,125.184C1211.27,132.497,1180.874,147.123,1165.676,161.312C1150.478,175.5,1150.478,189.25,1150.478,196.125L1150.478,203" id="my-svg-edge1" class="edge-thickness-normal edge-pattern-solid transition" style="fill:none;;;fill:none" data-edge="true" data-et="edge" data-id="edge1" data-points="W3sieCI6MTI0MS42NjU2MjUwMDAzNzI1LCJ5IjoxMTcuODcwMzAwNzUxODc5N30seyJ4IjoxMTUwLjQ3ODEyNTAwMDM3MjUsInkiOjE2MS43NX0seyJ4IjoxMTUwLjQ3ODEyNTAwMDM3MjUsInkiOjIwM31d" data-look="classic" marker-end="url(#my-svg_stateDiagram-barbEnd)"/><path d="M1113.927,241.5L1097.313,250.25C1080.7,259,1047.472,276.5,921.983,296.629C796.495,316.757,578.745,339.514,469.871,350.893L360.996,362.272" id="my-svg-edge2" class="edge-thickness-normal edge-pattern-solid transition" style="fill:none;;;fill:none" data-edge="true" data-et="edge" data-id="edge2" data-points="W3sieCI6MTExMy45Mjc0MzkwMjQ3NjI5LCJ5IjoyNDEuNX0seyJ4IjoxMDE0LjI0Mzc1MDAwMDM3MjUsInkiOjI5NH0seyJ4IjozNjAuOTk2MDkzNzUsInkiOjM2Mi4yNzE3MzQ2Nzc1MDY2fV0=" data-look="classic" marker-end="url(#my-svg_stateDiagram-barbEnd)"/><path d="M327.715,346.5L327.715,337.75C327.715,329,327.715,311.5,449.826,292.101C571.938,272.702,816.161,251.404,938.273,240.756L1060.384,230.107" id="my-svg-edge3" class="edge-thickness-normal edge-pattern-solid transition" style="fill:none;;;fill:none" data-edge="true" data-et="edge" data-id="edge3" data-points="W3sieCI6MzI3LjcxNDg0Mzc1LCJ5IjozNDYuNX0seyJ4IjozMjcuNzE0ODQzNzUsInkiOjI5NH0seyJ4IjoxMDYwLjM4NDM3NTAwMDM3MjUsInkiOjIzMC4xMDY3MjcwOTI0ODN9XQ==" data-look="classic" marker-end="url(#my-svg_stateDiagram-barbEnd)"/><path d="M1166.576,241.5L1173.893,250.25C1181.21,259,1195.844,276.5,1203.161,297.208C1210.478,317.917,1210.478,341.833,1210.478,365.75C1210.478,389.667,1210.478,413.583,1210.478,434.292C1210.478,455,1210.478,472.5,1210.478,499.5C1210.478,526.5,1210.478,563,1210.478,599.5C1210.478,636,1210.478,672.5,1210.478,699.5C1210.478,726.5,1210.478,744,1210.478,762.042C1210.478,780.083,1210.478,798.667,1210.478,807.958L1210.478,817.25" id="my-svg-edge4" class="edge-thickness-normal edge-pattern-solid transition" style="fill:none;;;fill:none" data-edge="true" data-et="edge" data-id="edge4" data-points="W3sieCI6MTE2Ni41NzU2ODU5NzU5ODIyLCJ5IjoyNDEuNX0seyJ4IjoxMjEwLjQ3ODEyNTAwMDM3MjUsInkiOjI5NH0seyJ4IjoxMjEwLjQ3ODEyNTAwMDM3MjUsInkiOjM2NS43NX0seyJ4IjoxMjEwLjQ3ODEyNTAwMDM3MjUsInkiOjQzNy41fSx7IngiOjEyMTAuNDc4MTI1MDAwMzcyNSwieSI6NDkwfSx7IngiOjEyMTAuNDc4MTI1MDAwMzcyNSwieSI6NTk5LjV9LHsieCI6MTIxMC40NzgxMjUwMDAzNzI1LCJ5Ijo3MDl9LHsieCI6MTIxMC40NzgxMjUwMDAzNzI1LCJ5Ijo3NjEuNX0seyJ4IjoxMjEwLjQ3ODEyNTAwMDM3MjUsInkiOjgxNy4yNX1d" data-look="classic" marker-end="url(#my-svg_stateDiagram-barbEnd)"/><path d="M1159.45,855.75L1134.82,865.042C1110.189,874.333,1060.929,892.917,1015.829,910.958C970.729,929,929.789,946.5,909.319,955.25L888.85,964" id="my-svg-edge5" class="edge-thickness-normal edge-pattern-solid transition" style="fill:none;;;fill:none" data-edge="true" data-et="edge" data-id="edge5" data-points="W3sieCI6MTE1OS40NTAxODQ4OTYxMTAyLCJ5Ijo4NTUuNzV9LHsieCI6MTAxMS42Njc5Njg3NSwieSI6OTExLjV9LHsieCI6ODg4Ljg0OTc1MjI4NjU4NTQsInkiOjk2NH1d" data-look="classic" marker-end="url(#my-svg_stateDiagram-barbEnd)"/><path d="M763.715,1001.169L723.609,1010.141C683.503,1019.113,603.29,1037.056,553.01,1055.32C502.729,1073.583,482.381,1092.167,472.206,1101.458L462.032,1110.75" id="my-svg-edge6" class="edge-thickness-normal edge-pattern-solid transition" style="fill:none;;;fill:none" data-edge="true" data-et="edge" data-id="edge6" data-points="W3sieCI6NzYzLjcxNDg0Mzc1LCJ5IjoxMDAxLjE2ODkzMDkzMzI3MTd9LHsieCI6NTIzLjA3ODEyNSwieSI6MTA1NX0seyJ4Ijo0NjIuMDMxODc1LCJ5IjoxMTEwLjc1fV0=" data-look="classic" marker-end="url(#my-svg_stateDiagram-barbEnd)"/><path d="M440.953,1110.75L440.953,1101.458C440.953,1092.167,440.953,1073.583,440.953,1052.333C440.953,1031.083,440.953,1007.167,440.953,983.25C440.953,959.333,440.953,935.417,440.953,910.958C440.953,886.5,440.953,861.5,440.953,836.5C440.953,811.5,440.953,786.5,440.953,765.25C440.953,744,440.953,726.5,440.953,699.5C440.953,672.5,440.953,636,440.953,599.5C440.953,563,440.953,526.5,440.953,499.5C440.953,472.5,440.953,455,427.144,437.5C413.334,420,385.715,402.5,371.905,393.75L358.096,385" id="my-svg-edge7" class="edge-thickness-normal edge-pattern-solid transition" style="fill:none;;;fill:none" data-edge="true" data-et="edge" data-id="edge7" data-points="W3sieCI6NDQwLjk1MzEyNSwieSI6MTExMC43NX0seyJ4Ijo0NDAuOTUzMTI1LCJ5IjoxMDU1fSx7IngiOjQ0MC45NTMxMjUsInkiOjk4My4yNX0seyJ4Ijo0NDAuOTUzMTI1LCJ5Ijo5MTEuNX0seyJ4Ijo0NDAuOTUzMTI1LCJ5Ijo4MzYuNX0seyJ4Ijo0NDAuOTUzMTI1LCJ5Ijo3NjEuNX0seyJ4Ijo0NDAuOTUzMTI1LCJ5Ijo3MDl9LHsieCI6NDQwLjk1MzEyNSwieSI6NTk5LjV9LHsieCI6NDQwLjk1MzEyNSwieSI6NDkwfSx7IngiOjQ0MC45NTMxMjUsInkiOjQzNy41fSx7IngiOjM1OC4wOTU4NDYwMzY1ODU0LCJ5IjozODV9XQ==" data-look="classic" marker-end="url(#my-svg_stateDiagram-barbEnd)"/><path d="M360.996,369.514L461.189,380.845C561.383,392.176,761.77,414.838,861.963,434.919C962.156,455,962.156,472.5,962.156,496.292C962.156,520.083,962.156,550.167,962.156,565.208L962.156,580.25" id="my-svg-edge8" class="edge-thickness-normal edge-pattern-solid transition" style="fill:none;;;fill:none" data-edge="true" data-et="edge" data-id="edge8" data-points="W3sieCI6MzYwLjk5NjA5Mzc1LCJ5IjozNjkuNTEzODMwMTQwOTMzNX0seyJ4Ijo5NjIuMTU2MjUsInkiOjQzNy41fSx7IngiOjk2Mi4xNTYyNSwieSI6NDkwfSx7IngiOjk2Mi4xNTYyNSwieSI6NTgwLjI1fV0=" data-look="classic" marker-end="url(#my-svg_stateDiagram-barbEnd)"/><path d="M962.156,618.75L962.156,633.792C962.156,648.833,962.156,678.917,962.156,702.708C962.156,726.5,962.156,744,932.135,762.379C902.115,780.758,842.073,800.017,812.052,809.646L782.031,819.275" id="my-svg-edge9" class="edge-thickness-normal edge-pattern-solid transition" style="fill:none;;;fill:none" data-edge="true" data-et="edge" data-id="edge9" data-points="W3sieCI6OTYyLjE1NjI1LCJ5Ijo2MTguNzV9LHsieCI6OTYyLjE1NjI1LCJ5Ijo3MDl9LHsieCI6OTYyLjE1NjI1LCJ5Ijo3NjEuNX0seyJ4Ijo3ODIuMDMxMjUsInkiOjgxOS4yNzQ4MDc4ODUwNjUxfV0=" data-look="classic" marker-end="url(#my-svg_stateDiagram-barbEnd)"/><path d="M782.031,846.423L840.733,857.269C899.435,868.115,1016.84,889.808,1075.542,912.604C1134.244,935.4,1134.244,959.3,1134.244,971.25L1134.244,983.2" id="my-svg-MONITORED-cyclic-special-1" class="edge-thickness-normal edge-pattern-solid transition" style="fill:none;;;fill:none" data-edge="true" data-et="edge" data-id="MONITORED-cyclic-special-1" data-points="W3sieCI6NzgyLjAzMTI1LCJ5Ijo4NDYuNDIyNTkwMTMxODY4N30seyJ4IjoxMTM0LjI0Mzc1MDAwMDM3MjUsInkiOjkxMS41fSx7IngiOjExMzQuMjQzNzUwMDAwMzcyNSwieSI6OTgzLjE5OTk5OTk5OTI1NDl9XQ==" data-look="classic"/><path d="M1134.194,983.261L1078.935,995.217C1023.676,1007.174,913.158,1031.087,836.177,1055.539C759.195,1079.99,715.749,1104.981,694.027,1117.476L672.304,1129.971" id="my-svg-MONITORED-cyclic-special-mid" class="edge-thickness-normal edge-pattern-solid transition" style="fill:none;;;fill:none" data-edge="true" data-et="edge" data-id="MONITORED-cyclic-special-mid" data-points="W3sieCI6MTEzNC4xOTM3NDk5OTk2Mjc1LCJ5Ijo5ODMuMjYwODE4NjU1NzQ1M30seyJ4Ijo4MDIuNjQwNjI1LCJ5IjoxMDU1fSx7IngiOjY3Mi4zMDM5MDYyNTA3NDUxLCJ5IjoxMTI5Ljk3MTIzOTQwMTU5MDh9XQ==" data-look="classic"/><path d="M672.209,1129.95L661.042,1117.458C649.874,1104.967,627.538,1079.983,616.371,1055.533C605.203,1031.083,605.203,1007.167,605.203,983.25C605.203,959.333,605.203,935.417,620.457,914.167C635.711,892.917,666.218,874.333,681.472,865.042L696.726,855.75" id="my-svg-MONITORED-cyclic-special-2" class="edge-thickness-normal edge-pattern-solid transition" style="fill:none;;;fill:none" data-edge="true" data-et="edge" data-id="MONITORED-cyclic-special-2" data-points="W3sieCI6NjcyLjIwOTIwNTcyODUwMDYsInkiOjExMjkuOTQ5OTk5OTk5MjU1fSx7IngiOjYwNS4yMDMxMjUsInkiOjEwNTV9LHsieCI6NjA1LjIwMzEyNSwieSI6OTgzLjI1fSx7IngiOjYwNS4yMDMxMjUsInkiOjkxMS41fSx7IngiOjY5Ni43MjYwNDE2NjY2NjY3LCJ5Ijo4NTUuNzV9XQ==" data-look="classic" marker-end="url(#my-svg_stateDiagram-barbEnd)"/><path d="M740.911,855.75L746.984,865.042C753.058,874.333,765.205,892.917,779.384,910.958C793.563,929,809.773,946.5,817.879,955.25L825.984,964" id="my-svg-edge11" class="edge-thickness-normal edge-pattern-solid transition" style="fill:none;;;fill:none" data-edge="true" data-et="edge" data-id="edge11" data-points="W3sieCI6NzQwLjkxMDgwNzI5MTY2NjYsInkiOjg1NS43NX0seyJ4Ijo3NzcuMzUxNTYyNSwieSI6OTExLjV9LHsieCI6ODI1Ljk4NDM3NSwieSI6OTY0fV0=" data-look="classic" marker-end="url(#my-svg_stateDiagram-barbEnd)"/><path d="M1310.744,107.588L1359.939,116.615C1409.134,125.642,1507.525,143.696,1556.72,162.806C1605.916,181.917,1605.916,202.083,1605.916,224.125C1605.916,246.167,1605.916,270.083,1605.916,294C1605.916,317.917,1605.916,341.833,1605.916,365.75C1605.916,389.667,1605.916,413.583,1605.916,434.292C1605.916,455,1605.916,472.5,1605.916,499.5C1605.916,526.5,1605.916,563,1605.916,599.5C1605.916,636,1605.916,672.5,1605.916,699.5C1605.916,726.5,1605.916,744,1605.916,765.25C1605.916,786.5,1605.916,811.5,1605.916,836.5C1605.916,861.5,1605.916,886.5,1605.916,910.958C1605.916,935.417,1605.916,959.333,1605.916,983.25C1605.916,1007.167,1605.916,1031.083,1605.916,1055.542C1605.916,1080,1605.916,1105,1605.916,1130C1605.916,1155,1605.916,1180,1572.469,1201.515C1539.022,1223.03,1472.128,1241.061,1438.681,1250.076L1405.234,1259.091" id="my-svg-edge12" class="edge-thickness-normal edge-pattern-solid transition" style="fill:none;;;fill:none" data-edge="true" data-et="edge" data-id="edge12" data-points="W3sieCI6MTMxMC43NDM3NTAwMDAzNzI1LCJ5IjoxMDcuNTg3NzEyOTU4Nzk0NH0seyJ4IjoxNjA1LjkxNTYyNTAwMDM3MjUsInkiOjE2MS43NX0seyJ4IjoxNjA1LjkxNTYyNTAwMDM3MjUsInkiOjIyMi4yNX0seyJ4IjoxNjA1LjkxNTYyNTAwMDM3MjUsInkiOjI5NH0seyJ4IjoxNjA1LjkxNTYyNTAwMDM3MjUsInkiOjM2NS43NX0seyJ4IjoxNjA1LjkxNTYyNTAwMDM3MjUsInkiOjQzNy41fSx7IngiOjE2MDUuOTE1NjI1MDAwMzcyNSwieSI6NDkwfSx7IngiOjE2MDUuOTE1NjI1MDAwMzcyNSwieSI6NTk5LjV9LHsieCI6MTYwNS45MTU2MjUwMDAzNzI1LCJ5Ijo3MDl9LHsieCI6MTYwNS45MTU2MjUwMDAzNzI1LCJ5Ijo3NjEuNX0seyJ4IjoxNjA1LjkxNTYyNTAwMDM3MjUsInkiOjgzNi41fSx7IngiOjE2MDUuOTE1NjI1MDAwMzcyNSwieSI6OTExLjV9LHsieCI6MTYwNS45MTU2MjUwMDAzNzI1LCJ5Ijo5ODMuMjV9LHsieCI6MTYwNS45MTU2MjUwMDAzNzI1LCJ5IjoxMDU1fSx7IngiOjE2MDUuOTE1NjI1MDAwMzcyNSwieSI6MTEzMH0seyJ4IjoxNjA1LjkxNTYyNTAwMDM3MjUsInkiOjEyMDV9LHsieCI6MTQwNS4yMzM1OTM3NTA3NDUsInkiOjEyNTkuMDkxMTQzOTQ1NTI4fV0=" data-look="classic" marker-end="url(#my-svg_stateDiagram-barbEnd)"/><path d="M1240.572,240.866L1283.43,249.722C1326.288,258.577,1412.004,276.289,1454.862,297.103C1497.72,317.917,1497.72,341.833,1497.72,365.75C1497.72,389.667,1497.72,413.583,1497.72,434.292C1497.72,455,1497.72,472.5,1497.72,499.5C1497.72,526.5,1497.72,563,1497.72,599.5C1497.72,636,1497.72,672.5,1497.72,699.5C1497.72,726.5,1497.72,744,1497.72,765.25C1497.72,786.5,1497.72,811.5,1497.72,836.5C1497.72,861.5,1497.72,886.5,1497.72,910.958C1497.72,935.417,1497.72,959.333,1497.72,983.25C1497.72,1007.167,1497.72,1031.083,1497.72,1055.542C1497.72,1080,1497.72,1105,1497.72,1130C1497.72,1155,1497.72,1180,1478.452,1201.25C1459.183,1222.5,1420.646,1240,1401.377,1248.75L1382.109,1257.5" id="my-svg-edge13" class="edge-thickness-normal edge-pattern-solid transition" style="fill:none;;;fill:none" data-edge="true" data-et="edge" data-id="edge13" data-points="W3sieCI6MTI0MC41NzE4NzUwMDAzNzI1LCJ5IjoyNDAuODY1OTAyMDg1NjMwMDd9LHsieCI6MTQ5Ny43MjAzMTI1MDAzNzI1LCJ5IjoyOTR9LHsieCI6MTQ5Ny43MjAzMTI1MDAzNzI1LCJ5IjozNjUuNzV9LHsieCI6MTQ5Ny43MjAzMTI1MDAzNzI1LCJ5Ijo0MzcuNX0seyJ4IjoxNDk3LjcyMDMxMjUwMDM3MjUsInkiOjQ5MH0seyJ4IjoxNDk3LjcyMDMxMjUwMDM3MjUsInkiOjU5OS41fSx7IngiOjE0OTcuNzIwMzEyNTAwMzcyNSwieSI6NzA5fSx7IngiOjE0OTcuNzIwMzEyNTAwMzcyNSwieSI6NzYxLjV9LHsieCI6MTQ5Ny43MjAzMTI1MDAzNzI1LCJ5Ijo4MzYuNX0seyJ4IjoxNDk3LjcyMDMxMjUwMDM3MjUsInkiOjkxMS41fSx7IngiOjE0OTcuNzIwMzEyNTAwMzcyNSwieSI6OTgzLjI1fSx7IngiOjE0OTcuNzIwMzEyNTAwMzcyNSwieSI6MTA1NX0seyJ4IjoxNDk3LjcyMDMxMjUwMDM3MjUsInkiOjExMzB9LHsieCI6MTQ5Ny43MjAzMTI1MDAzNzI1LCJ5IjoxMjA1fSx7IngiOjEzODIuMTA4ODQxNDY0MDU5NywieSI6MTI1Ny41fV0=" data-look="classic" marker-end="url(#my-svg_stateDiagram-barbEnd)"/><path d="M1248.571,855.75L1266.958,865.042C1285.345,874.333,1322.118,892.917,1340.505,914.167C1358.892,935.417,1358.892,959.333,1358.892,983.25C1358.892,1007.167,1358.892,1031.083,1358.892,1055.542C1358.892,1080,1358.892,1105,1358.892,1130C1358.892,1155,1358.892,1180,1356.554,1201.25C1354.216,1222.5,1349.539,1240,1347.201,1248.75L1344.862,1257.5" id="my-svg-edge14" class="edge-thickness-normal edge-pattern-solid transition" style="fill:none;;;fill:none" data-edge="true" data-et="edge" data-id="edge14" data-points="W3sieCI6MTI0OC41NzEwNjc3MDg3MDU5LCJ5Ijo4NTUuNzV9LHsieCI6MTM1OC44OTIxODc1MDAzNzI1LCJ5Ijo5MTEuNX0seyJ4IjoxMzU4Ljg5MjE4NzUwMDM3MjUsInkiOjk4My4yNX0seyJ4IjoxMzU4Ljg5MjE4NzUwMDM3MjUsInkiOjEwNTV9LHsieCI6MTM1OC44OTIxODc1MDAzNzI1LCJ5IjoxMTMwfSx7IngiOjEzNTguODkyMTg3NTAwMzcyNSwieSI6MTIwNX0seyJ4IjoxMzQ0Ljg2MjI3MTM0MjEwODQsInkiOjEyNTcuNX1d" data-look="classic" marker-end="url(#my-svg_stateDiagram-barbEnd)"/><path d="M881.116,1002.5L898.07,1011.25C915.024,1020,948.933,1037.5,965.887,1058.75C982.841,1080,982.841,1105,982.841,1130C982.841,1155,982.841,1180,1031.402,1202.263C1079.962,1224.526,1177.082,1244.052,1225.642,1253.815L1274.202,1263.578" id="my-svg-edge15" class="edge-thickness-normal edge-pattern-solid transition" style="fill:none;;;fill:none" data-edge="true" data-et="edge" data-id="edge15" data-points="W3sieCI6ODgxLjExNTc5NjQ5NDAwMjQsInkiOjEwMDIuNX0seyJ4Ijo5ODIuODQxNDA2MjUwMzcyNSwieSI6MTA1NX0seyJ4Ijo5ODIuODQxNDA2MjUwMzcyNSwieSI6MTEzMH0seyJ4Ijo5ODIuODQxNDA2MjUwMzcyNSwieSI6MTIwNX0seyJ4IjoxMjc0LjIwMjM0Mzc1MDc0NSwieSI6MTI2My41NzgwODk2MzE4NDU0fV0=" data-look="classic" marker-end="url(#my-svg_stateDiagram-barbEnd)"/><path d="M440.953,1149.25L440.953,1158.542C440.953,1167.833,440.953,1186.417,579.828,1206.795C718.703,1227.173,996.453,1249.347,1135.327,1260.433L1274.202,1271.52" id="my-svg-edge16" class="edge-thickness-normal edge-pattern-solid transition" style="fill:none;;;fill:none" data-edge="true" data-et="edge" data-id="edge16" data-points="W3sieCI6NDQwLjk1MzEyNSwieSI6MTE0OS4yNX0seyJ4Ijo0NDAuOTUzMTI1LCJ5IjoxMjA1fSx7IngiOjEyNzQuMjAyMzQzNzUwNzQ1LCJ5IjoxMjcxLjUxOTc3MDg0MDAyfV0=" data-look="classic" marker-end="url(#my-svg_stateDiagram-barbEnd)"/><path d="M1281.947,1296L1255.688,1304.75C1229.429,1313.5,1176.91,1331,1150.65,1348.5C1124.391,1366,1124.391,1383.5,1124.391,1405.582C1124.391,1427.664,1124.391,1454.329,1124.391,1467.661L1124.391,1480.993" id="my-svg-edge17" class="edge-thickness-normal edge-pattern-solid transition" style="fill:none;;;fill:none" data-edge="true" data-et="edge" data-id="edge17" data-points="W3sieCI6MTI4MS45NDczMjExNzg0MzcsInkiOjEyOTZ9LHsieCI6MTEyNC4zOTEwMDk2MTc1OTY5LCJ5IjoxMzQ4LjV9LHsieCI6MTEyNC4zOTEwMDk2MTc1OTY5LCJ5IjoxNDAxfSx7IngiOjExMjQuMzkxMDA5NjE3NTk2OSwieSI6MTQ4MC45OTMzNTMzNjY4NTE4fV0=" data-look="classic" marker-end="url(#my-svg_stateDiagram-barbEnd)"/><path d="M297.334,385L283.524,393.75C269.715,402.5,242.096,420,228.286,437.5C214.477,455,214.477,472.5,214.477,486.25C214.477,500,214.477,510,214.477,515L214.477,520" id="my-svg-GATED-GATED----note-18" class="edge-thickness-normal edge-pattern-solid transition note-edge" style="fill:none;;;fill:none" data-edge="true" data-et="edge" data-id="GATED-GATED----note-18" data-points="W3sieCI6Mjk3LjMzMzg0MTQ2MzQxNDYsInkiOjM4NX0seyJ4IjoyMTQuNDc2NTYyNSwieSI6NDM3LjV9LHsieCI6MjE0LjQ3NjU2MjUsInkiOjQ5MH0seyJ4IjoyMTQuNDc2NTYyNSwieSI6NTIwfV0=" data-look="classic"/><path d="M1339.718,1296L1339.718,1304.75C1339.718,1313.5,1339.718,1331,1339.718,1348.5C1339.718,1366,1339.718,1383.5,1339.718,1397.25C1339.718,1411,1339.718,1421,1339.718,1426L1339.718,1431" id="my-svg-NEEDS_HUMAN-NEEDS_HUMAN----note-19" class="edge-thickness-normal edge-pattern-solid transition note-edge" style="fill:none;;;fill:none" data-edge="true" data-et="edge" data-id="NEEDS_HUMAN-NEEDS_HUMAN----note-19" data-points="W3sieCI6MTMzOS43MTc5Njg3NTA3NDUsInkiOjEyOTZ9LHsieCI6MTMzOS43MTc5Njg3NTA3NDUsInkiOjEzNDguNX0seyJ4IjoxMzM5LjcxNzk2ODc1MDc0NSwieSI6MTQwMX0seyJ4IjoxMzM5LjcxNzk2ODc1MDc0NSwieSI6MTQzMX1d" data-look="classic"/><path d="M728.328,656.5L728.328,665.25C728.328,674,728.328,691.5,728.328,709C728.328,726.5,728.328,744,728.328,762.042C728.328,780.083,728.328,798.667,728.328,807.958L728.328,817.25" id="my-svg-MONITORED----note-20-MONITORED" class="edge-thickness-normal edge-pattern-solid transition note-edge" style="fill:none;;;fill:none" data-edge="true" data-et="edge" data-id="MONITORED----note-20-MONITORED" data-points="W3sieCI6NzI4LjMyODEyNSwieSI6NjU2LjV9LHsieCI6NzI4LjMyODEyNSwieSI6NzA5fSx7IngiOjcyOC4zMjgxMjUsInkiOjc2MS41fSx7IngiOjcyOC4zMjgxMjUsInkiOjgxNy4yNX1d" data-look="classic"/></g><g class="edgeLabels"><g class="edgeLabel"><g class="label" data-id="edge0" transform="translate(0, 0)"><foreignObject width="0" height="0"><div xmlns="http://www.w3.org/1999/xhtml" class="labelBkg" style="display: table-cell; white-space: nowrap; line-height: 1.5; max-width: 200px; text-align: center;"><span class="edgeLabel"></span></div></foreignObject></g></g><g class="edgeLabel" transform="translate(1150.4781250003725, 161.75)"><g class="label" data-id="edge1" transform="translate(-60.46875, -11.25)"><foreignObject width="120.9375" height="22.5"><div xmlns="http://www.w3.org/1999/xhtml" class="labelBkg" style="display: table-cell; white-space: nowrap; line-height: 1.5; max-width: 200px; text-align: center;"><span class="edgeLabel"><p>plan checkpointed</p></span></div></foreignObject></g></g><g class="edgeLabel" transform="translate(743.64658, 322.28045)"><g class="label" data-id="edge2" transform="translate(-100, -22.5)"><foreignObject width="200" height="45"><div xmlns="http://www.w3.org/1999/xhtml" class="labelBkg" style="display: table; white-space: break-spaces; line-height: 1.5; max-width: 200px; text-align: center; width: 200px;"><span class="edgeLabel"><p>P1 · no approval token for first contact</p></span></div></foreignObject></g></g><g class="edgeLabel" transform="translate(327.71484375, 294)"><g class="label" data-id="edge3" transform="translate(-100, -22.5)"><foreignObject width="200" height="45"><div xmlns="http://www.w3.org/1999/xhtml" class="labelBkg" style="display: table; white-space: break-spaces; line-height: 1.5; max-width: 200px; text-align: center; width: 200px;"><span class="edgeLabel"><p>contact authorised, single-use token spent</p></span></div></foreignObject></g></g><g class="edgeLabel" transform="translate(1210.4781250003725, 437.5)"><g class="label" data-id="edge4" transform="translate(-97.1484375, -11.25)"><foreignObject width="194.296875" height="22.5"><div xmlns="http://www.w3.org/1999/xhtml" class="labelBkg" style="display: table-cell; white-space: nowrap; line-height: 1.5; max-width: 200px; text-align: center;"><span class="edgeLabel"><p>coverage reaches 90 percent</p></span></div></foreignObject></g></g><g class="edgeLabel" transform="translate(1023.07323, 907.19743)"><g class="label" data-id="edge5" transform="translate(-100, -22.5)"><foreignObject width="200" height="45"><div xmlns="http://www.w3.org/1999/xhtml" class="labelBkg" style="display: table; white-space: break-spaces; line-height: 1.5; max-width: 200px; text-align: center; width: 200px;"><span class="edgeLabel"><p>documents screened and stamped</p></span></div></foreignObject></g></g><g class="edgeLabel" transform="translate(523.078125, 1055)"><g class="label" data-id="edge6" transform="translate(-62.125, -11.25)"><foreignObject width="124.25" height="22.5"><div xmlns="http://www.w3.org/1999/xhtml" class="labelBkg" style="display: table-cell; white-space: nowrap; line-height: 1.5; max-width: 200px; text-align: center;"><span class="edgeLabel"><p>findings reconciled</p></span></div></foreignObject></g></g><g class="edgeLabel" transform="translate(440.953125, 836.5)"><g class="label" data-id="edge7" transform="translate(-100, -22.5)"><foreignObject width="200" height="45"><div xmlns="http://www.w3.org/1999/xhtml" class="labelBkg" style="display: table; white-space: break-spaces; line-height: 1.5; max-width: 200px; text-align: center; width: 200px;"><span class="edgeLabel"><p>G1 · memo written, waiting on a named human</p></span></div></foreignObject></g></g><g class="edgeLabel" transform="translate(962.15625, 437.5)"><g class="label" data-id="edge8" transform="translate(-100, -22.5)"><foreignObject width="200" height="45"><div xmlns="http://www.w3.org/1999/xhtml" class="labelBkg" style="display: table; white-space: break-spaces; line-height: 1.5; max-width: 200px; text-align: center; width: 200px;"><span class="edgeLabel"><p>signed approval token, identity recorded</p></span></div></foreignObject></g></g><g class="edgeLabel" transform="translate(962.15625, 761.5)"><g class="label" data-id="edge9" transform="translate(-100, -22.5)"><foreignObject width="200" height="45"><div xmlns="http://www.w3.org/1999/xhtml" class="labelBkg" style="display: table; white-space: break-spaces; line-height: 1.5; max-width: 200px; text-align: center; width: 200px;"><span class="edgeLabel"><p>watchdog takes over the vendor</p></span></div></foreignObject></g></g><g class="edgeLabel"><g class="label" data-id="MONITORED-cyclic-special-1" transform="translate(0, 0)"><foreignObject width="0" height="0"><div xmlns="http://www.w3.org/1999/xhtml" class="labelBkg" style="display: table-cell; white-space: nowrap; line-height: 1.5; max-width: 200px; text-align: center;"><span class="edgeLabel"></span></div></foreignObject></g></g><g class="edgeLabel" transform="translate(894.93722, 1035.0295)"><g class="label" data-id="MONITORED-cyclic-special-mid" transform="translate(-92.1484375, -11.25)"><foreignObject width="184.296875" height="22.5"><div xmlns="http://www.w3.org/1999/xhtml" class="labelBkg" style="display: table-cell; white-space: nowrap; line-height: 1.5; max-width: 200px; text-align: center;"><span class="edgeLabel"><p>scheduled sweep, no signal</p></span></div></foreignObject></g></g><g class="edgeLabel"><g class="label" data-id="MONITORED-cyclic-special-2" transform="translate(0, 0)"><foreignObject width="0" height="0"><div xmlns="http://www.w3.org/1999/xhtml" class="labelBkg" style="display: table-cell; white-space: nowrap; line-height: 1.5; max-width: 200px; text-align: center;"><span class="edgeLabel"></span></div></foreignObject></g></g><g class="edgeLabel" transform="translate(779.03715, 913.31962)"><g class="label" data-id="edge11" transform="translate(-100, -22.5)"><foreignObject width="200" height="45"><div xmlns="http://www.w3.org/1999/xhtml" class="labelBkg" style="display: table; white-space: break-spaces; line-height: 1.5; max-width: 200px; text-align: center; width: 200px;"><span class="edgeLabel"><p>watchdog.hit opens a NEW linked review</p></span></div></foreignObject></g></g><g class="edgeLabel"><g class="label" data-id="edge12" transform="translate(0, 0)"><foreignObject width="0" height="0"><div xmlns="http://www.w3.org/1999/xhtml" class="labelBkg" style="display: table-cell; white-space: nowrap; line-height: 1.5; max-width: 200px; text-align: center;"><span class="edgeLabel"></span></div></foreignObject></g></g><g class="edgeLabel" transform="translate(1497.7203125003725, 836.5)"><g class="label" data-id="edge13" transform="translate(-73.796875, -11.25)"><foreignObject width="147.59375" height="22.5"><div xmlns="http://www.w3.org/1999/xhtml" class="labelBkg" style="display: table-cell; white-space: nowrap; line-height: 1.5; max-width: 200px; text-align: center;"><span class="edgeLabel"><p>three chases, no reply</p></span></div></foreignObject></g></g><g class="edgeLabel" transform="translate(1358.8921875003725, 1055)"><g class="label" data-id="edge14" transform="translate(-100, -22.5)"><foreignObject width="200" height="45"><div xmlns="http://www.w3.org/1999/xhtml" class="labelBkg" style="display: table; white-space: break-spaces; line-height: 1.5; max-width: 200px; text-align: center; width: 200px;"><span class="edgeLabel"><p>answer below the confidence threshold</p></span></div></foreignObject></g></g><g class="edgeLabel" transform="translate(982.8414062503725, 1130)"><g class="label" data-id="edge15" transform="translate(-100, -22.5)"><foreignObject width="200" height="45"><div xmlns="http://www.w3.org/1999/xhtml" class="labelBkg" style="display: table; white-space: break-spaces; line-height: 1.5; max-width: 200px; text-align: center; width: 200px;"><span class="edgeLabel"><p>corrupt or unreadable document</p></span></div></foreignObject></g></g><g class="edgeLabel" transform="translate(440.953125, 1205)"><g class="label" data-id="edge16" transform="translate(-100, -22.5)"><foreignObject width="200" height="45"><div xmlns="http://www.w3.org/1999/xhtml" class="labelBkg" style="display: table; white-space: break-spaces; line-height: 1.5; max-width: 200px; text-align: center; width: 200px;"><span class="edgeLabel"><p>invalid transition or DLQ exhaustion</p></span></div></foreignObject></g></g><g class="edgeLabel" transform="translate(1124.3910096175969, 1348.5)"><g class="label" data-id="edge17" transform="translate(-100, -22.5)"><foreignObject width="200" height="45"><div xmlns="http://www.w3.org/1999/xhtml" class="labelBkg" style="display: table; white-space: break-spaces; line-height: 1.5; max-width: 200px; text-align: center; width: 200px;"><span class="edgeLabel"><p>analyst resolves and the review resumes</p></span></div></foreignObject></g></g><g class="edgeLabel"><g class="label" data-id="GATED-GATED----note-18" transform="translate(0, 0)"><foreignObject width="0" height="0"><div xmlns="http://www.w3.org/1999/xhtml" class="labelBkg" style="display: table-cell; white-space: nowrap; line-height: 1.5; max-width: 200px; text-align: center;"><span class="edgeLabel"></span></div></foreignObject></g></g><g class="edgeLabel"><g class="label" data-id="NEEDS_HUMAN-NEEDS_HUMAN----note-19" transform="translate(0, 0)"><foreignObject width="0" height="0"><div xmlns="http://www.w3.org/1999/xhtml" class="labelBkg" style="display: table-cell; white-space: nowrap; line-height: 1.5; max-width: 200px; text-align: center;"><span class="edgeLabel"></span></div></foreignObject></g></g><g class="edgeLabel"><g class="label" data-id="MONITORED----note-20-MONITORED" transform="translate(0, 0)"><foreignObject width="0" height="0"><div xmlns="http://www.w3.org/1999/xhtml" class="labelBkg" style="display: table-cell; white-space: nowrap; line-height: 1.5; max-width: 200px; text-align: center;"><span class="edgeLabel"></span></div></foreignObject></g></g></g><g class="nodes"><g class="node default" id="my-svg-state-root_start-0" data-look="classic" transform="translate(1276.2046875003725, 15)"><circle class="state-start" r="7" width="14" height="14"/></g><g class="node  statediagram-state" id="my-svg-state-INTAKE-12" data-look="classic" transform="translate(1276.2046875003725, 101.25)"><rect class="basic label-container" style="" rx="5" ry="5" x="-34.5390625" y="-19.25" width="69.078125" height="38.5"/><g class="label" style="" transform="translate(-26.5390625, -11.25)"><rect/><foreignObject width="53.078125" height="22.5"><div xmlns="http://www.w3.org/1999/xhtml" style="display: table-cell; white-space: nowrap; line-height: 1.5; max-width: 460px; text-align: center;"><span class="nodeLabel markdown-node-label"><p>INTAKE</p></span></div></foreignObject></g></g><g class="node  statediagram-state" id="my-svg-state-QUESTIONNAIRE_OUT-13" data-look="classic" transform="translate(1150.4781250003725, 222.25)"><rect class="basic label-container" style="" rx="5" ry="5" x="-90.09375" y="-19.25" width="180.1875" height="38.5"/><g class="label" style="" transform="translate(-82.09375, -11.25)"><rect/><foreignObject width="164.1875" height="22.5"><div xmlns="http://www.w3.org/1999/xhtml" style="display: table-cell; white-space: nowrap; line-height: 1.5; max-width: 460px; text-align: center;"><span class="nodeLabel markdown-node-label"><p>QUESTIONNAIRE_OUT</p></span></div></foreignObject></g></g><g class="node  statediagram-state" id="my-svg-state-GATED-18" data-look="classic" transform="translate(327.71484375, 365.75)"><rect class="basic label-container" style="" rx="5" ry="5" x="-33.28125" y="-19.25" width="66.5625" height="38.5"/><g class="label" style="" transform="translate(-25.28125, -11.25)"><rect/><foreignObject width="50.5625" height="22.5"><div xmlns="http://www.w3.org/1999/xhtml" style="display: table-cell; white-space: nowrap; line-height: 1.5; max-width: 460px; text-align: center;"><span class="nodeLabel markdown-node-label"><p>GATED</p></span></div></foreignObject></g></g><g class="node  statediagram-state" id="my-svg-state-REPLIES_IN-14" data-look="classic" transform="translate(1210.4781250003725, 836.5)"><rect class="basic label-container" style="" rx="5" ry="5" x="-51.359375" y="-19.25" width="102.71875" height="38.5"/><g class="label" style="" transform="translate(-43.359375, -11.25)"><rect/><foreignObject width="86.71875" height="22.5"><div xmlns="http://www.w3.org/1999/xhtml" style="display: table-cell; white-space: nowrap; line-height: 1.5; max-width: 460px; text-align: center;"><span class="nodeLabel markdown-node-label"><p>REPLIES_IN</p></span></div></foreignObject></g></g><g class="node  statediagram-state" id="my-svg-state-EVIDENCE_REVIEW-15" data-look="classic" transform="translate(843.81640625, 983.25)"><rect class="basic label-container" style="" rx="5" ry="5" x="-80.1015625" y="-19.25" width="160.203125" height="38.5"/><g class="label" style="" transform="translate(-72.1015625, -11.25)"><rect/><foreignObject width="144.203125" height="22.5"><div xmlns="http://www.w3.org/1999/xhtml" style="display: table-cell; white-space: nowrap; line-height: 1.5; max-width: 460px; text-align: center;"><span class="nodeLabel markdown-node-label"><p>EVIDENCE_REVIEW</p></span></div></foreignObject></g></g><g class="node  statediagram-state" id="my-svg-state-SCORED-16" data-look="classic" transform="translate(440.953125, 1130)"><rect class="basic label-container" style="" rx="5" ry="5" x="-40.09375" y="-19.25" width="80.1875" height="38.5"/><g class="label" style="" transform="translate(-32.09375, -11.25)"><rect/><foreignObject width="64.1875" height="22.5"><div xmlns="http://www.w3.org/1999/xhtml" style="display: table-cell; white-space: nowrap; line-height: 1.5; max-width: 460px; text-align: center;"><span class="nodeLabel markdown-node-label"><p>SCORED</p></span></div></foreignObject></g></g><g class="node  statediagram-state" id="my-svg-state-DECIDED-9" data-look="classic" transform="translate(962.15625, 599.5)"><rect class="basic label-container" style="" rx="5" ry="5" x="-41.7578125" y="-19.25" width="83.515625" height="38.5"/><g class="label" style="" transform="translate(-33.7578125, -11.25)"><rect/><foreignObject width="67.515625" height="22.5"><div xmlns="http://www.w3.org/1999/xhtml" style="display: table-cell; white-space: nowrap; line-height: 1.5; max-width: 460px; text-align: center;"><span class="nodeLabel markdown-node-label"><p>DECIDED</p></span></div></foreignObject></g></g><g class="node  statediagram-state" id="my-svg-state-MONITORED-20" data-look="classic" transform="translate(728.328125, 836.5)"><rect class="basic label-container" style="" rx="5" ry="5" x="-53.703125" y="-19.25" width="107.40625" height="38.5"/><g class="label" style="" transform="translate(-45.703125, -11.25)"><rect/><foreignObject width="91.40625" height="22.5"><div xmlns="http://www.w3.org/1999/xhtml" style="display: table-cell; white-space: nowrap; line-height: 1.5; max-width: 460px; text-align: center;"><span class="nodeLabel markdown-node-label"><p>MONITORED</p></span></div></foreignObject></g></g><g class="node  statediagram-state" id="my-svg-state-NEEDS_HUMAN-19" data-look="classic" transform="translate(1339.717968750745, 1276.75)"><rect class="basic label-container" style="" rx="5" ry="5" x="-65.515625" y="-19.25" width="131.03125" height="38.5"/><g class="label" style="" transform="translate(-57.515625, -11.25)"><rect/><foreignObject width="115.03125" height="22.5"><div xmlns="http://www.w3.org/1999/xhtml" style="display: table-cell; white-space: nowrap; line-height: 1.5; max-width: 460px; text-align: center;"><span class="nodeLabel markdown-node-label"><p>NEEDS_HUMAN</p></span></div></foreignObject></g></g><g class="node default" id="my-svg-state-root_end-17" data-look="classic" transform="translate(1124.3910096175969, 1488)"><g class="outer-path"><path d="M7 0 C7 0.40517908122283747, 6.964012880168563 0.816513743121899, 6.893654271085456 1.2155372436685123 C6.823295662002349 1.6145607442151257, 6.716427752933756 2.013397210557766, 6.5778483455013586 2.394141003279681 C6.439268938068961 2.7748847960015954, 6.26476736710249 3.149104622578984, 6.062177826491071 3.4999999999999996 C5.859588285879653 3.8508953774210153, 5.622755194947063 4.189128084166967, 5.362311101832846 4.499513267805774 C5.10186700871863 4.809898451444582, 4.809898451444583 5.10186700871863, 4.499513267805775 5.362311101832846 C4.189128084166968 5.622755194947063, 3.8508953774210166 5.859588285879652, 3.500000000000001 6.06217782649107 C3.149104622578985 6.264767367102489, 2.7748847960015963 6.439268938068961, 2.3941410032796817 6.5778483455013586 C2.013397210557767 6.716427752933756, 1.6145607442151264 6.823295662002349, 1.2155372436685128 6.893654271085456 C0.8165137431218992 6.964012880168563, 0.4051790812228379 7, 4.286263797015736e-16 7 C-0.405179081222837 7, -0.8165137431218985 6.964012880168563, -1.2155372436685121 6.893654271085456 C-1.6145607442151257 6.823295662002349, -2.0133972105577667 6.716427752933756, -2.394141003279681 6.5778483455013586 C-2.774884796001595 6.439268938068961, -3.149104622578983 6.26476736710249, -3.4999999999999982 6.062177826491071 C-3.8508953774210135 5.859588285879653, -4.189128084166966 5.6227551949470636, -4.499513267805773 5.362311101832848 C-4.809898451444581 5.101867008718632, -5.101867008718628 4.809898451444586, -5.3623111018328435 4.499513267805779 C-5.622755194947059 4.189128084166971, -5.859588285879649 3.8508953774210206, -6.062177826491068 3.5000000000000053 C-6.264767367102486 3.14910462257899, -6.439268938068958 2.774884796001602, -6.577848345501356 2.394141003279688 C-6.716427752933754 2.0133972105577738, -6.823295662002347 1.614560744215134, -6.893654271085454 1.215537243668521 C-6.9640128801685615 0.816513743121908, -6.999999999999999 0.4051790812228472, -7 1.0183126166254463e-14 C-7.000000000000001 -0.40517908122282686, -6.964012880168565 -0.8165137431218878, -6.893654271085459 -1.215537243668501 C-6.823295662002352 -1.6145607442151142, -6.716427752933759 -2.0133972105577542, -6.577848345501363 -2.394141003279669 C-6.439268938068967 -2.7748847960015834, -6.264767367102496 -3.149104622578972, -6.062177826491078 -3.4999999999999876 C-5.859588285879661 -3.8508953774210033, -5.6227551949470715 -4.1891280841669545, -5.362311101832856 -4.499513267805763 C-5.10186700871864 -4.809898451444571, -4.809898451444594 -5.10186700871862, -4.499513267805787 -5.362311101832836 C-4.189128084166979 -5.622755194947053, -3.850895377421028 -5.859588285879643, -3.5000000000000133 -6.062177826491062 C-3.1491046225789985 -6.264767367102482, -2.774884796001611 -6.439268938068954, -2.3941410032796973 -6.577848345501353 C-2.0133972105577835 -6.716427752933752, -1.6145607442151435 -6.823295662002345, -1.2155372436685306 -6.893654271085453 C-0.8165137431219176 -6.9640128801685615, -0.40517908122285695 -6.999999999999999, -1.9937625952807352e-14 -7 C0.4051790812228171 -7.000000000000001, 0.8165137431218781 -6.964012880168565, 1.2155372436684913 -6.89365427108546 C1.6145607442151044 -6.823295662002354, 2.013397210557745 -6.716427752933763, 2.3941410032796595 -6.5778483455013665 C2.774884796001574 -6.43926893806897, 3.149104622578963 -6.2647673671025, 3.499999999999979 -6.062177826491083 C3.8508953774209953 -5.859588285879665, 4.189128084166947 -5.622755194947077, 4.499513267805756 -5.362311101832862 C4.809898451444564 -5.1018670087186475, 5.101867008718613 -4.809898451444602, 5.362311101832829 -4.499513267805796 C5.622755194947046 -4.189128084166989, 5.859588285879637 -3.8508953774210393, 6.062177826491056 -3.500000000000025 C6.2647673671024755 -3.1491046225790105, 6.439268938068949 -2.774884796001623, 6.577848345501348 -2.3941410032797092 C6.716427752933747 -2.0133972105577955, 6.823295662002342 -1.6145607442151562, 6.893654271085451 -1.2155372436685434 C6.96401288016856 -0.8165137431219307, 6.982275711847575 -0.2025895406114567, 7 -3.2800750208310675e-14 C7.017724288152425 0.2025895406113911, 7.017724288152424 -0.2025895406114242, 7 0" stroke="none" stroke-width="0" fill="#dbeafe" style=""/><path d="M7 0 C7 0.40517908122283747, 6.964012880168563 0.816513743121899, 6.893654271085456 1.2155372436685123 C6.823295662002349 1.6145607442151257, 6.716427752933756 2.013397210557766, 6.5778483455013586 2.394141003279681 C6.439268938068961 2.7748847960015954, 6.26476736710249 3.149104622578984, 6.062177826491071 3.4999999999999996 C5.859588285879653 3.8508953774210153, 5.622755194947063 4.189128084166967, 5.362311101832846 4.499513267805774 C5.10186700871863 4.809898451444582, 4.809898451444583 5.10186700871863, 4.499513267805775 5.362311101832846 C4.189128084166968 5.622755194947063, 3.8508953774210166 5.859588285879652, 3.500000000000001 6.06217782649107 C3.149104622578985 6.264767367102489, 2.7748847960015963 6.439268938068961, 2.3941410032796817 6.5778483455013586 C2.013397210557767 6.716427752933756, 1.6145607442151264 6.823295662002349, 1.2155372436685128 6.893654271085456 C0.8165137431218992 6.964012880168563, 0.4051790812228379 7, 4.286263797015736e-16 7 C-0.405179081222837 7, -0.8165137431218985 6.964012880168563, -1.2155372436685121 6.893654271085456 C-1.6145607442151257 6.823295662002349, -2.0133972105577667 6.716427752933756, -2.394141003279681 6.5778483455013586 C-2.774884796001595 6.439268938068961, -3.149104622578983 6.26476736710249, -3.4999999999999982 6.062177826491071 C-3.8508953774210135 5.859588285879653, -4.189128084166966 5.6227551949470636, -4.499513267805773 5.362311101832848 C-4.809898451444581 5.101867008718632, -5.101867008718628 4.809898451444586, -5.3623111018328435 4.499513267805779 C-5.622755194947059 4.189128084166971, -5.859588285879649 3.8508953774210206, -6.062177826491068 3.5000000000000053 C-6.264767367102486 3.14910462257899, -6.439268938068958 2.774884796001602, -6.577848345501356 2.394141003279688 C-6.716427752933754 2.0133972105577738, -6.823295662002347 1.614560744215134, -6.893654271085454 1.215537243668521 C-6.9640128801685615 0.816513743121908, -6.999999999999999 0.4051790812228472, -7 1.0183126166254463e-14 C-7.000000000000001 -0.40517908122282686, -6.964012880168565 -0.8165137431218878, -6.893654271085459 -1.215537243668501 C-6.823295662002352 -1.6145607442151142, -6.716427752933759 -2.0133972105577542, -6.577848345501363 -2.394141003279669 C-6.439268938068967 -2.7748847960015834, -6.264767367102496 -3.149104622578972, -6.062177826491078 -3.4999999999999876 C-5.859588285879661 -3.8508953774210033, -5.6227551949470715 -4.1891280841669545, -5.362311101832856 -4.499513267805763 C-5.10186700871864 -4.809898451444571, -4.809898451444594 -5.10186700871862, -4.499513267805787 -5.362311101832836 C-4.189128084166979 -5.622755194947053, -3.850895377421028 -5.859588285879643, -3.5000000000000133 -6.062177826491062 C-3.1491046225789985 -6.264767367102482, -2.774884796001611 -6.439268938068954, -2.3941410032796973 -6.577848345501353 C-2.0133972105577835 -6.716427752933752, -1.6145607442151435 -6.823295662002345, -1.2155372436685306 -6.893654271085453 C-0.8165137431219176 -6.9640128801685615, -0.40517908122285695 -6.999999999999999, -1.9937625952807352e-14 -7 C0.4051790812228171 -7.000000000000001, 0.8165137431218781 -6.964012880168565, 1.2155372436684913 -6.89365427108546 C1.6145607442151044 -6.823295662002354, 2.013397210557745 -6.716427752933763, 2.3941410032796595 -6.5778483455013665 C2.774884796001574 -6.43926893806897, 3.149104622578963 -6.2647673671025, 3.499999999999979 -6.062177826491083 C3.8508953774209953 -5.859588285879665, 4.189128084166947 -5.622755194947077, 4.499513267805756 -5.362311101832862 C4.809898451444564 -5.1018670087186475, 5.101867008718613 -4.809898451444602, 5.362311101832829 -4.499513267805796 C5.622755194947046 -4.189128084166989, 5.859588285879637 -3.8508953774210393, 6.062177826491056 -3.500000000000025 C6.2647673671024755 -3.1491046225790105, 6.439268938068949 -2.774884796001623, 6.577848345501348 -2.3941410032797092 C6.716427752933747 -2.0133972105577955, 6.823295662002342 -1.6145607442151562, 6.893654271085451 -1.2155372436685434 C6.96401288016856 -0.8165137431219307, 6.982275711847575 -0.2025895406114567, 7 -3.2800750208310675e-14 C7.017724288152425 0.2025895406113911, 7.017724288152424 -0.2025895406114242, 7 0" stroke="#475569" stroke-width="2" fill="none" stroke-dasharray="0 0" style=""/><g><path d="M2.5 0 C2.5 0.14470681472244193, 2.487147457203058 0.29161205111496386, 2.46201938253052 0.4341204441673258 C2.436891307857982 0.5766288372196877, 2.3987241974763416 0.7190704323420595, 2.3492315519647713 0.8550503583141718 C2.299738906453201 0.991030284286284, 2.2374169168223177 1.124680222349637, 2.165063509461097 1.2499999999999998 C2.092710102099876 1.3753197776503625, 2.0081268553382365 1.496117172916774, 1.915111107797445 1.6069690242163481 C1.8220953602566536 1.7178208755159223, 1.7178208755159226 1.8220953602566536, 1.6069690242163484 1.915111107797445 C1.4961171729167742 2.0081268553382365, 1.375319777650363 2.0927101020998755, 1.2500000000000002 2.1650635094610964 C1.1246802223496375 2.2374169168223172, 0.9910302842862845 2.2997389064532, 0.8550503583141721 2.349231551964771 C0.7190704323420597 2.3987241974763416, 0.576628837219688 2.436891307857982, 0.43412044416732604 2.46201938253052 C0.291612051114964 2.487147457203058, 0.14470681472244212 2.5, 1.5308084989341916e-16 2.5 C-0.1447068147224418 2.5, -0.2916120511149638 2.487147457203058, -0.43412044416732576 2.46201938253052 C-0.5766288372196877 2.436891307857982, -0.7190704323420595 2.3987241974763416, -0.8550503583141718 2.3492315519647713 C-0.991030284286284 2.299738906453201, -1.124680222349637 2.2374169168223177, -1.2499999999999996 2.165063509461097 C-1.375319777650362 2.092710102099876, -1.4961171729167733 2.008126855338237, -1.6069690242163475 1.9151111077974459 C-1.7178208755159217 1.8220953602566548, -1.822095360256653 1.7178208755159234, -1.9151111077974443 1.6069690242163495 C-2.0081268553382357 1.4961171729167755, -2.0927101020998746 1.3753197776503645, -2.1650635094610955 1.250000000000002 C-2.2374169168223164 1.1246802223496395, -2.2997389064531992 0.9910302842862865, -2.34923155196477 0.8550503583141743 C-2.3987241974763407 0.7190704323420621, -2.436891307857981 0.5766288372196907, -2.4620193825305194 0.434120444167329 C-2.487147457203058 0.29161205111496724, -2.5 0.14470681472244545, -2.5 3.636830773662308e-15 C-2.5 -0.14470681472243818, -2.4871474572030587 -0.2916120511149599, -2.4620193825305208 -0.4341204441673218 C-2.436891307857983 -0.5766288372196837, -2.398724197476343 -0.7190704323420553, -2.3492315519647726 -0.8550503583141675 C-2.2997389064532023 -0.9910302842862798, -2.23741691682232 -1.1246802223496328, -2.165063509461099 -1.2499999999999956 C-2.092710102099878 -1.3753197776503583, -2.00812685533824 -1.4961171729167695, -1.9151111077974488 -1.606969024216344 C-1.8220953602566576 -1.7178208755159183, -1.7178208755159263 -1.82209536025665, -1.6069690242163523 -1.9151111077974416 C-1.4961171729167784 -2.0081268553382334, -1.3753197776503672 -2.0927101020998724, -1.2500000000000047 -2.1650635094610937 C-1.1246802223496422 -2.237416916822315, -0.9910302842862897 -2.299738906453198, -0.8550503583141776 -2.3492315519647686 C-0.7190704323420656 -2.3987241974763394, -0.5766288372196942 -2.4368913078579806, -0.43412044416733236 -2.462019382530519 C-0.29161205111497057 -2.4871474572030574, -0.1447068147224489 -2.4999999999999996, -7.120580697431198e-15 -2.5 C0.14470681472243463 -2.5000000000000004, 0.29161205111495647 -2.487147457203059, 0.4341204441673183 -2.4620193825305217 C0.5766288372196802 -2.436891307857984, 0.7190704323420518 -2.3987241974763442, 0.8550503583141642 -2.349231551964774 C0.9910302842862766 -2.2997389064532037, 1.1246802223496295 -2.2374169168223212, 1.2499999999999925 -2.165063509461101 C1.3753197776503554 -2.0927101020998804, 1.4961171729167668 -2.008126855338242, 1.6069690242163412 -1.915111107797451 C1.7178208755159157 -1.82209536025666, 1.8220953602566472 -1.7178208755159294, 1.915111107797439 -1.6069690242163557 C2.0081268553382308 -1.496117172916782, 2.09271010209987 -1.3753197776503712, 2.1650635094610915 -1.2500000000000089 C2.237416916822313 -1.1246802223496466, 2.299738906453196 -0.9910302842862939, 2.3492315519647673 -0.855050358314182 C2.3987241974763385 -0.71907043234207, 2.4368913078579792 -0.5766288372196986, 2.462019382530518 -0.4341204441673369 C2.487147457203057 -0.29161205111497523, 2.4936698970884197 -0.07235340736123454, 2.5 -1.1714553645825241e-14 C2.5063301029115803 0.07235340736121111, 2.50633010291158 -0.07235340736122292, 2.5 0" stroke="none" stroke-width="0" fill="#1d4ed8" style=""/><path d="M2.5 0 C2.5 0.14470681472244193, 2.487147457203058 0.29161205111496386, 2.46201938253052 0.4341204441673258 C2.436891307857982 0.5766288372196877, 2.3987241974763416 0.7190704323420595, 2.3492315519647713 0.8550503583141718 C2.299738906453201 0.991030284286284, 2.2374169168223177 1.124680222349637, 2.165063509461097 1.2499999999999998 C2.092710102099876 1.3753197776503625, 2.0081268553382365 1.496117172916774, 1.915111107797445 1.6069690242163481 C1.8220953602566536 1.7178208755159223, 1.7178208755159226 1.8220953602566536, 1.6069690242163484 1.915111107797445 C1.4961171729167742 2.0081268553382365, 1.375319777650363 2.0927101020998755, 1.2500000000000002 2.1650635094610964 C1.1246802223496375 2.2374169168223172, 0.9910302842862845 2.2997389064532, 0.8550503583141721 2.349231551964771 C0.7190704323420597 2.3987241974763416, 0.576628837219688 2.436891307857982, 0.43412044416732604 2.46201938253052 C0.291612051114964 2.487147457203058, 0.14470681472244212 2.5, 1.5308084989341916e-16 2.5 C-0.1447068147224418 2.5, -0.2916120511149638 2.487147457203058, -0.43412044416732576 2.46201938253052 C-0.5766288372196877 2.436891307857982, -0.7190704323420595 2.3987241974763416, -0.8550503583141718 2.3492315519647713 C-0.991030284286284 2.299738906453201, -1.124680222349637 2.2374169168223177, -1.2499999999999996 2.165063509461097 C-1.375319777650362 2.092710102099876, -1.4961171729167733 2.008126855338237, -1.6069690242163475 1.9151111077974459 C-1.7178208755159217 1.8220953602566548, -1.822095360256653 1.7178208755159234, -1.9151111077974443 1.6069690242163495 C-2.0081268553382357 1.4961171729167755, -2.0927101020998746 1.3753197776503645, -2.1650635094610955 1.250000000000002 C-2.2374169168223164 1.1246802223496395, -2.2997389064531992 0.9910302842862865, -2.34923155196477 0.8550503583141743 C-2.3987241974763407 0.7190704323420621, -2.436891307857981 0.5766288372196907, -2.4620193825305194 0.434120444167329 C-2.487147457203058 0.29161205111496724, -2.5 0.14470681472244545, -2.5 3.636830773662308e-15 C-2.5 -0.14470681472243818, -2.4871474572030587 -0.2916120511149599, -2.4620193825305208 -0.4341204441673218 C-2.436891307857983 -0.5766288372196837, -2.398724197476343 -0.7190704323420553, -2.3492315519647726 -0.8550503583141675 C-2.2997389064532023 -0.9910302842862798, -2.23741691682232 -1.1246802223496328, -2.165063509461099 -1.2499999999999956 C-2.092710102099878 -1.3753197776503583, -2.00812685533824 -1.4961171729167695, -1.9151111077974488 -1.606969024216344 C-1.8220953602566576 -1.7178208755159183, -1.7178208755159263 -1.82209536025665, -1.6069690242163523 -1.9151111077974416 C-1.4961171729167784 -2.0081268553382334, -1.3753197776503672 -2.0927101020998724, -1.2500000000000047 -2.1650635094610937 C-1.1246802223496422 -2.237416916822315, -0.9910302842862897 -2.299738906453198, -0.8550503583141776 -2.3492315519647686 C-0.7190704323420656 -2.3987241974763394, -0.5766288372196942 -2.4368913078579806, -0.43412044416733236 -2.462019382530519 C-0.29161205111497057 -2.4871474572030574, -0.1447068147224489 -2.4999999999999996, -7.120580697431198e-15 -2.5 C0.14470681472243463 -2.5000000000000004, 0.29161205111495647 -2.487147457203059, 0.4341204441673183 -2.4620193825305217 C0.5766288372196802 -2.436891307857984, 0.7190704323420518 -2.3987241974763442, 0.8550503583141642 -2.349231551964774 C0.9910302842862766 -2.2997389064532037, 1.1246802223496295 -2.2374169168223212, 1.2499999999999925 -2.165063509461101 C1.3753197776503554 -2.0927101020998804, 1.4961171729167668 -2.008126855338242, 1.6069690242163412 -1.915111107797451 C1.7178208755159157 -1.82209536025666, 1.8220953602566472 -1.7178208755159294, 1.915111107797439 -1.6069690242163557 C2.0081268553382308 -1.496117172916782, 2.09271010209987 -1.3753197776503712, 2.1650635094610915 -1.2500000000000089 C2.237416916822313 -1.1246802223496466, 2.299738906453196 -0.9910302842862939, 2.3492315519647673 -0.855050358314182 C2.3987241974763385 -0.71907043234207, 2.4368913078579792 -0.5766288372196986, 2.462019382530518 -0.4341204441673369 C2.487147457203057 -0.29161205111497523, 2.4936698970884197 -0.07235340736123454, 2.5 -1.1714553645825241e-14 C2.5063301029115803 0.07235340736121111, 2.50633010291158 -0.07235340736122292, 2.5 0" stroke="#1d4ed8" stroke-width="2" fill="none" stroke-dasharray="0 0" style=""/></g></g></g><g class="node statediagram-note" id="my-svg-state-GATED----note-18" data-look="classic" transform="translate(214.4765625, 599.5)"><g class="basic label-container outer-path"><path d="M-173.9765625 -79.5 L173.9765625 -79.5 L173.9765625 79.5 L-173.9765625 79.5" stroke="none" stroke-width="0" fill="#fff5ad" style=""/><path d="M-173.9765625 -79.5 C-82.15649384076501 -79.5, 9.663574818469982 -79.5, 173.9765625 -79.5 M-173.9765625 -79.5 C-51.799171565239234 -79.5, 70.37821936952153 -79.5, 173.9765625 -79.5 M173.9765625 -79.5 C173.9765625 -35.767691865750905, 173.9765625 7.96461626849819, 173.9765625 79.5 M173.9765625 -79.5 C173.9765625 -32.98420413313392, 173.9765625 13.531591733732157, 173.9765625 79.5 M173.9765625 79.5 C48.79284408435228 79.5, -76.39087433129544 79.5, -173.9765625 79.5 M173.9765625 79.5 C54.67222394314226 79.5, -64.63211461371549 79.5, -173.9765625 79.5 M-173.9765625 79.5 C-173.9765625 42.53209024051353, -173.9765625 5.564180481027066, -173.9765625 -79.5 M-173.9765625 79.5 C-173.9765625 35.65192379070351, -173.9765625 -8.196152418592973, -173.9765625 -79.5" stroke="hsl(52.6829268293, 60%, 73.9215686275%)" stroke-width="1.3" fill="none" stroke-dasharray="0 0" style=""/></g><g class="label noteLabel" style="" transform="translate(-161.9765625, -67.5)"><rect/><foreignObject width="323.953125" height="135"><div xmlns="http://www.w3.org/1999/xhtml" style="display: table-cell; white-space: nowrap; line-height: 1.5; max-width: 460px; text-align: center;"><span class="nodeLabel markdown-node-label"><p>One state, two scopes.<br />gate_scope = contact  → P1, first outbound email<br />gate_scope = decision → G1, risk acceptance<br />Both are signed, single-use and scoped,<br />and both are enforced at the gateway —<br />never in the user interface.</p></span></div></foreignObject></g></g><g class="node statediagram-note" id="my-svg-state-NEEDS_HUMAN----note-19" data-look="classic" transform="translate(1339.717968750745, 1488)"><g class="basic label-container outer-path"><path d="M-143.3203125 -57 L143.3203125 -57 L143.3203125 57 L-143.3203125 57" stroke="none" stroke-width="0" fill="#fff5ad" style=""/><path d="M-143.3203125 -57 C-41.771240650834 -57, 59.777831198331995 -57, 143.3203125 -57 M-143.3203125 -57 C-47.56025237238691 -57, 48.199807755226175 -57, 143.3203125 -57 M143.3203125 -57 C143.3203125 -29.10557135993548, 143.3203125 -1.2111427198709634, 143.3203125 57 M143.3203125 -57 C143.3203125 -21.11548111057749, 143.3203125 14.769037778845018, 143.3203125 57 M143.3203125 57 C57.1407611745351 57, -29.0387901509298 57, -143.3203125 57 M143.3203125 57 C83.98986563340958 57, 24.659418766819172 57, -143.3203125 57 M-143.3203125 57 C-143.3203125 12.400518624312355, -143.3203125 -32.19896275137529, -143.3203125 -57 M-143.3203125 57 C-143.3203125 22.74978131019509, -143.3203125 -11.50043737960982, -143.3203125 -57" stroke="hsl(52.6829268293, 60%, 73.9215686275%)" stroke-width="1.3" fill="none" stroke-dasharray="0 0" style=""/></g><g class="label noteLabel" style="" transform="translate(-131.3203125, -45)"><rect/><foreignObject width="262.640625" height="90"><div xmlns="http://www.w3.org/1999/xhtml" style="display: table-cell; white-space: nowrap; line-height: 1.5; max-width: 460px; text-align: center;"><span class="nodeLabel markdown-node-label"><p>Enterable from any state.<br />Parks the review with a dashboard card<br />explaining what stalled and why.<br />It never silently corrects.</p></span></div></foreignObject></g></g><g class="node statediagram-note" id="my-svg-state-MONITORED----note-20" data-look="classic" transform="translate(728.328125, 599.5)"><g class="basic label-container outer-path"><path d="M-127.0703125 -57 L127.0703125 -57 L127.0703125 57 L-127.0703125 57" stroke="none" stroke-width="0" fill="#fff5ad" style=""/><path d="M-127.0703125 -57 C-56.39676711772513 -57, 14.276778264549733 -57, 127.0703125 -57 M-127.0703125 -57 C-30.504622144674173 -57, 66.06106821065165 -57, 127.0703125 -57 M127.0703125 -57 C127.0703125 -33.46392039243164, 127.0703125 -9.927840784863278, 127.0703125 57 M127.0703125 -57 C127.0703125 -17.925317007918032, 127.0703125 21.149365984163936, 127.0703125 57 M127.0703125 57 C32.73295003138868 57, -61.604412437222635 57, -127.0703125 57 M127.0703125 57 C64.73827021459341 57, 2.4062279291868265 57, -127.0703125 57 M-127.0703125 57 C-127.0703125 12.079728661192974, -127.0703125 -32.84054267761405, -127.0703125 -57 M-127.0703125 57 C-127.0703125 13.493747213468254, -127.0703125 -30.012505573063493, -127.0703125 -57" stroke="hsl(52.6829268293, 60%, 73.9215686275%)" stroke-width="1.3" fill="none" stroke-dasharray="0 0" style=""/></g><g class="label noteLabel" style="" transform="translate(-115.0703125, -45)"><rect/><foreignObject width="230.140625" height="90"><div xmlns="http://www.w3.org/1999/xhtml" style="display: table-cell; white-space: nowrap; line-height: 1.5; max-width: 460px; text-align: center;"><span class="nodeLabel markdown-node-label"><p>History is never mutated.<br />A reopened review is a new record<br />linked to the old one, so the<br />audit trail stays intact.</p></span></div></foreignObject></g></g><g class="label edgeLabel" id="MONITORED---MONITORED---1" transform="translate(1134.2437500003725, 983.25)"><rect width="0.1" height="0.1"/><g class="label" style="" transform="translate(0, 0)"><rect/><foreignObject width="0" height="0"><div xmlns="http://www.w3.org/1999/xhtml" style="display: table-cell; white-space: nowrap; line-height: 1.5; max-width: 10px; text-align: center;"><span class="nodeLabel"></span></div></foreignObject></g></g><g class="label edgeLabel" id="MONITORED---MONITORED---2" transform="translate(672.25390625, 1130)"><rect width="0.1" height="0.1"/><g class="label" style="" transform="translate(0, 0)"><rect/><foreignObject width="0" height="0"><div xmlns="http://www.w3.org/1999/xhtml" style="display: table-cell; white-space: nowrap; line-height: 1.5; max-width: 10px; text-align: center;"><span class="nodeLabel"></span></div></foreignObject></g></g></g></g></g><defs><filter id="my-svg-drop-shadow" height="130%" width="130%"><feDropShadow dx="4" dy="4" stdDeviation="0" flood-opacity="0.06" flood-color="#000000"/></filter></defs><defs><filter id="my-svg-drop-shadow-small" height="150%" width="150%"><feDropShadow dx="2" dy="2" stdDeviation="0" flood-opacity="0.06" flood-color="#000000"/></filter></defs><linearGradient id="my-svg-gradient" gradientUnits="objectBoundingBox" x1="0%" y1="0%" x2="100%" y2="0%"><stop offset="0%" stop-color="#1d4ed8" stop-opacity="1"/><stop offset="100%" stop-color="hsl(94.2857142857, 54.5945945946%, 82.7450980392%)" stop-opacity="1"/></linearGradient><text text-anchor="middle" x="806.9580078125" y="-25" class="statediagramTitleText">Drawbridge — Review state machine: the system refuses to guess</text></svg>